<svg width="402.8280517578125px" height="131.6px" xmlns="http://www.w3.org/2000/svg" viewBox="48.585974121093756 9.200000000000003 402.8280517578125 131.6" style="background: rgba(40, 41, 47, 0.004);" preserveAspectRatio="xMidYMid"><defs><filter id="editing-hole" x="-100%" y="-100%" width="300%" height="300%"><feFlood flood-color="#ffffff" result="black"></feFlood><feMorphology operator="dilate" radius="2" in="SourceGraphic" result="erode"></feMorphology><feGaussianBlur in="erode" stdDeviation="4" result="blur"></feGaussianBlur><feOffset in="blur" dx="2" dy="2" result="offset"></feOffset><feComposite operator="atop" in="offset" in2="black" result="merge"></feComposite><feComposite operator="in" in="merge" in2="SourceGraphic" result="inner-shadow"></feComposite></filter></defs><g filter="url(#editing-hole)"><g transform="translate(108.0299859046936, 106.28000068664551)"><path d="M34.75-40.38L13.56-40.38L13.56-25.88L32.81-25.88L32.81-20.75L13.56-20.75L13.56-5.69L34.75-5.69L34.75 0L5.94 0L5.94-46.06L34.75-46.06L34.75-40.38ZM70.19-19.06L70.19-10.94L70.19-10.44L70.19-10.44Q70.19-9.94 70.25-8.97L70.25-8.97L70.25-8.97Q70.31-8 70.50-7L70.50-7L70.50-7Q70.69-6 71.09-5.19L71.09-5.19L71.09-5.19Q71.50-4.38 72.19-4.13L72.19-4.13L70.19 0.06L70.19 0.06Q69.38 0.06 68.47-0.31L68.47-0.31L68.47-0.31Q67.56-0.69 66.72-1.38L66.72-1.38L66.72-1.38Q65.88-2.06 65.28-2.91L65.28-2.91L65.28-2.91Q64.69-3.75 64.38-4.75L64.38-4.75L64.38-4.75Q63.94-3.69 62.84-2.78L62.84-2.78L62.84-2.78Q61.75-1.88 60.38-1.16L60.38-1.16L60.38-1.16Q59-0.44 57.41-0.06L57.41-0.06L57.41-0.06Q55.81 0.31 54.44 0.31L54.44 0.31L54.44 0.31Q52.31 0.31 50.34-0.25L50.34-0.25L50.34-0.25Q48.38-0.81 46.88-2.06L46.88-2.06L46.88-2.06Q45.38-3.31 44.53-5.38L44.53-5.38L44.53-5.38Q43.69-7.44 43.69-10.44L43.69-10.44L43.69-10.44Q43.69-13.31 44.91-15.41L44.91-15.41L44.91-15.41Q46.13-17.50 48.03-18.84L48.03-18.84L48.03-18.84Q49.94-20.19 52.38-20.84L52.38-20.84L52.38-20.84Q54.81-21.50 57.31-21.50L57.31-21.50L62.63-21.50L62.63-21.50Q62.63-24.56 62.31-26.38L62.31-26.38L62.31-26.38Q62-28.19 61.25-29.03L61.25-29.03L61.25-29.03Q60.50-29.88 59.41-30.09L59.41-30.09L59.41-30.09Q58.31-30.31 56.81-30.31L56.81-30.31L56.81-30.31Q55.44-30.31 54.22-29.97L54.22-29.97L54.22-29.97Q53-29.63 51.97-29.16L51.97-29.16L51.97-29.16Q50.94-28.69 50.16-28.13L50.16-28.13L50.16-28.13Q49.38-27.56 49-27.25L49-27.25L46.19-31.56L46.19-31.56Q46.81-32.25 48.06-32.97L48.06-32.97L48.06-32.97Q49.31-33.69 50.94-34.25L50.94-34.25L50.94-34.25Q52.56-34.81 54.47-35.16L54.47-35.16L54.47-35.16Q56.38-35.50 58.44-35.50L58.44-35.50L58.44-35.50Q60.31-35.50 62.09-35.13L62.09-35.13L62.09-35.13Q63.88-34.75 65.34-33.88L65.34-33.88L65.34-33.88Q66.81-33 67.91-31.53L67.91-31.53L67.91-31.53Q69-30.06 69.44-27.88L69.44-27.88L69.44-27.88Q69.88-25.69 70.03-23.47L70.03-23.47L70.03-23.47Q70.19-21.25 70.19-19.06L70.19-19.06ZM62.69-8.44L62.69-17.06L58.69-17.06L58.69-17.06Q57.44-17.06 56.06-16.81L56.06-16.81L56.06-16.81Q54.69-16.56 53.50-15.88L53.50-15.88L53.50-15.88Q52.31-15.19 51.53-13.91L51.53-13.91L51.53-13.91Q50.75-12.63 50.75-10.63L50.75-10.63L50.75-10.63Q50.75-7.50 52.16-6.13L52.16-6.13L52.16-6.13Q53.56-4.75 56.25-4.75L56.25-4.75L56.25-4.75Q58.13-4.75 59.84-5.75L59.84-5.75L59.84-5.75Q61.56-6.75 62.69-8.44L62.69-8.44ZM81.44-2.81L81.44-2.81L84.63-7.88L84.63-7.88Q85.88-7 87.59-6.25L87.59-6.25L87.59-6.25Q89.31-5.50 91.94-5.50L91.94-5.50L91.94-5.50Q95.38-5.50 97.31-6.56L97.31-6.56L97.31-6.56Q99.25-7.63 99.25-9.69L99.25-9.69L99.25-9.69Q99.25-11.19 98.13-12.09L98.13-12.09L98.13-12.09Q97-13 95.28-13.66L95.28-13.66L95.28-13.66Q93.56-14.31 91.59-14.91L91.59-14.91L91.59-14.91Q89.63-15.50 87.94-16.38L87.94-16.38L87.94-16.38Q84.63-18.13 82.97-20.06L82.97-20.06L82.97-20.06Q81.31-22 81.31-25.19L81.31-25.19L81.31-25.19Q81.31-27.81 82.41-29.81L82.41-29.81L82.41-29.81Q83.50-31.81 85.25-33.16L85.25-33.16L85.25-33.16Q87-34.50 89.25-35.19L89.25-35.19L89.25-35.19Q91.50-35.88 93.81-35.88L93.81-35.88L93.81-35.88Q96.94-35.88 99.56-35.22L99.56-35.22L99.56-35.22Q102.19-34.56 104.63-33L104.63-33L102.19-27.81L102.19-27.81Q100.31-28.88 98.13-29.28L98.13-29.28L98.13-29.28Q95.94-29.69 93.81-29.69L93.81-29.69L93.81-29.69Q91.50-29.69 90.16-28.66L90.16-28.66L90.16-28.66Q88.81-27.63 88.81-25.44L88.81-25.44L88.81-25.44Q88.81-23.75 90.03-22.78L90.03-22.78L90.03-22.78Q91.25-21.81 93.19-21.06L93.19-21.06L93.19-21.06Q95.13-20.31 97.31-19.56L97.31-19.56L97.31-19.56Q99.50-18.81 101.41-17.66L101.41-17.66L101.41-17.66Q103.31-16.50 104.56-14.75L104.56-14.75L104.56-14.75Q105.81-13 105.81-10.25L105.81-10.25L105.81-10.25Q105.81-7.56 104.75-5.56L104.75-5.56L104.75-5.56Q103.69-3.56 101.88-2.25L101.88-2.25L101.88-2.25Q100.06-0.94 97.69-0.31L97.69-0.31L97.69-0.31Q95.31 0.31 92.63 0.31L92.63 0.31L92.63 0.31Q91 0.31 89.63 0.22L89.63 0.22L89.63 0.22Q88.25 0.13 86.94-0.19L86.94-0.19L86.94-0.19Q85.63-0.50 84.31-1.13L84.31-1.13L84.31-1.13Q83-1.75 81.44-2.81ZM142-35.25L149.63-35.25L149.63-35.25Q146.19-26.06 143.50-18.97L143.50-18.97L143.50-18.97Q140.81-11.88 138.81-6.53L138.81-6.53L138.81-6.53Q136.81-1.19 135.28 2.50L135.28 2.50L135.28 2.50Q133.75 6.19 132.47 8.66L132.47 8.66L132.47 8.66Q131.19 11.13 130.06 12.53L130.06 12.53L130.06 12.53Q128.94 13.94 127.75 14.69L127.75 14.69L127.75 14.69Q126.56 15.44 125.16 15.59L125.16 15.59L125.16 15.59Q123.75 15.75 121.94 15.75L121.94 15.75L121.94 15.75Q121.38 15.75 120.63 15.59L120.63 15.59L120.63 15.59Q119.88 15.44 119.16 15.22L119.16 15.22L119.16 15.22Q118.44 15 117.88 14.78L117.88 14.78L117.88 14.78Q117.31 14.56 117.13 14.50L117.13 14.50L117.13 14.50Q117.38 13.38 117.63 12.38L117.63 12.38L117.63 12.38Q117.81 11.50 118.03 10.72L118.03 10.72L118.03 10.72Q118.25 9.94 118.38 9.63L118.38 9.63L118.38 9.63Q118.88 9.63 119.91 9.94L119.91 9.94L119.91 9.94Q120.94 10.25 121.44 10.25L121.44 10.25L121.44 10.25Q122.44 10.25 123.22 10.16L123.22 10.16L123.22 10.16Q124 10.06 124.63 9.59L124.63 9.59L124.63 9.59Q125.25 9.13 125.81 8.22L125.81 8.22L125.81 8.22Q126.38 7.31 127.06 5.63L127.06 5.63L129.44 0L115-35.25L122.56-35.25L132.88-8.13L142-35.25ZM184.06-12.63L184.06-12.63L184.06-12.63Q184.06-10.13 183.03-7.78L183.03-7.78L183.03-7.78Q182-5.44 180.13-3.66L180.13-3.66L180.13-3.66Q178.25-1.88 175.50-0.81L175.50-0.81L175.50-0.81Q172.75 0.25 169.25 0.25L169.25 0.25L169.25 0.25Q167.75 0.25 166.16 0.09L166.16 0.09L166.16 0.09Q164.56-0.06 162.94-0.44L162.94-0.44L162.94-0.44Q161.31-0.81 159.84-1.47L159.84-1.47L159.84-1.47Q158.38-2.13 157.31-3.06L157.31-3.06L158.63-8.44L158.63-8.44Q159.50-7.94 160.84-7.47L160.84-7.47L160.84-7.47Q162.19-7 163.63-6.59L163.63-6.59L163.63-6.59Q165.06-6.19 166.50-5.94L166.50-5.94L166.50-5.94Q167.94-5.69 169.19-5.69L169.19-5.69L169.19-5.69Q173-5.69 175.03-7.47L175.03-7.47L175.03-7.47Q177.06-9.25 177.06-12.75L177.06-12.75L177.06-12.75Q177.06-14.88 175.63-16.38L175.63-16.38L175.63-16.38Q174.19-17.88 172.03-19.09L172.03-19.09L172.03-19.09Q169.88-20.31 167.38-21.53L167.38-21.53L167.38-21.53Q164.88-22.75 162.69-24.41L162.69-24.41L162.69-24.41Q160.50-26.06 159.06-28.31L159.06-28.31L159.06-28.31Q157.63-30.56 157.63-33.94L157.63-33.94L157.63-33.94Q157.63-37 158.75-39.38L158.75-39.38L158.75-39.38Q159.88-41.75 161.78-43.41L161.78-43.41L161.78-43.41Q163.69-45.06 166.22-45.94L166.22-45.94L166.22-45.94Q168.75-46.81 171.56-46.81L171.56-46.81L171.56-46.81Q174.44-46.81 177.38-46.28L177.38-46.28L177.38-46.28Q180.31-45.75 182.13-44.56L182.13-44.56L182.13-44.56Q181.75-43.75 181.25-42.78L181.25-42.78L181.25-42.78Q180.75-41.81 180.31-40.97L180.31-40.97L180.31-40.97Q179.88-40.13 179.56-39.56L179.56-39.56L179.56-39.56Q179.25-39 179.19-38.94L179.19-38.94L179.19-38.94Q178.81-39.13 178.34-39.44L178.34-39.44L178.34-39.44Q177.88-39.75 177-40.06L177-40.06L177-40.06Q176.13-40.38 174.69-40.50L174.69-40.50L174.69-40.50Q173.25-40.63 171-40.44L171-40.44L171-40.44Q169.75-40.31 168.63-39.72L168.63-39.72L168.63-39.72Q167.50-39.13 166.63-38.25L166.63-38.25L166.63-38.25Q165.75-37.38 165.25-36.28L165.25-36.28L165.25-36.28Q164.75-35.19 164.75-34.19L164.75-34.19L164.75-34.19Q164.75-31.69 166.19-30.16L166.19-30.16L166.19-30.16Q167.63-28.63 169.75-27.47L169.75-27.47L169.75-27.47Q171.88-26.31 174.38-25.22L174.38-25.22L174.38-25.22Q176.88-24.13 179.03-22.56L179.03-22.56L179.03-22.56Q181.19-21 182.63-18.66L182.63-18.66L182.63-18.66Q184.06-16.31 184.06-12.63ZM207.19-35.44L207.19-35.44L207.19-35.44Q210.81-35.44 213.75-34.03L213.75-34.03L213.75-34.03Q216.69-32.63 218.75-30.19L218.75-30.19L218.75-30.19Q220.81-27.75 221.94-24.50L221.94-24.50L221.94-24.50Q223.06-21.25 223.06-17.50L223.06-17.50L223.06-17.50Q223.06-13.75 221.88-10.47L221.88-10.47L221.88-10.47Q220.69-7.19 218.53-4.78L218.53-4.78L218.53-4.78Q216.38-2.38 213.41-1.03L213.41-1.03L213.41-1.03Q210.44 0.31 206.81 0.31L206.81 0.31L206.81 0.31Q203.13 0.31 200.09-1.06L200.09-1.06L200.09-1.06Q197.06-2.44 194.97-4.88L194.97-4.88L194.97-4.88Q192.88-7.31 191.75-10.56L191.75-10.56L191.75-10.56Q190.63-13.81 190.63-17.63L190.63-17.63L190.63-17.63Q190.63-21.44 191.84-24.75L191.84-24.75L191.84-24.75Q193.06-28.06 195.22-30.41L195.22-30.41L195.22-30.41Q197.38-32.75 200.44-34.09L200.44-34.09L200.44-34.09Q203.50-35.44 207.19-35.44ZM206.69-5.63L206.69-5.63L206.69-5.63Q208.56-5.63 210.09-6.53L210.09-6.53L210.09-6.53Q211.63-7.44 212.72-9.03L212.72-9.03L212.72-9.03Q213.81-10.63 214.47-12.81L214.47-12.81L214.47-12.81Q215.13-15 215.13-17.50L215.13-17.50L215.13-17.50Q215.13-20 214.53-22.19L214.53-22.19L214.53-22.19Q213.94-24.38 212.91-26.03L212.91-26.03L212.91-26.03Q211.88-27.69 210.38-28.69L210.38-28.69L210.38-28.69Q208.88-29.69 207-29.69L207-29.69L207-29.69Q205.13-29.69 203.56-28.75L203.56-28.75L203.56-28.75Q202-27.81 200.91-26.22L200.91-26.22L200.91-26.22Q199.81-24.63 199.22-22.47L199.22-22.47L199.22-22.47Q198.63-20.31 198.63-17.81L198.63-17.81L198.63-17.81Q198.63-15.31 199.16-13.09L199.16-13.09L199.16-13.09Q199.69-10.88 200.75-9.25L200.75-9.25L200.75-9.25Q201.81-7.63 203.28-6.63L203.28-6.63L203.28-6.63Q204.75-5.63 206.69-5.63ZM252.69-35.50L252.69-27.63L252.69-27.63Q250.94-28.13 248.44-28.19L248.44-28.19L248.44-28.19Q246.19-28.19 243.97-27.66L243.97-27.66L243.97-27.66Q241.75-27.13 240.44-25.88L240.44-25.88L240.44-12.50L240.44-12.38L240.44 0L232.88 0L232.88-35.25L239.63-35.25L240.44-31.63L240.44-31.63Q241.38-32.56 242.41-33.31L242.41-33.31L242.41-33.31Q243.44-34.06 244.81-34.53L244.81-34.53L244.81-34.53Q246.19-35 248.06-35.25L248.06-35.25L248.06-35.25Q249.94-35.50 252.69-35.50L252.69-35.50ZM270.81-30.13L270.81-10.69L270.81-10.69Q270.81-8.56 271.38-7.38L271.38-7.38L271.38-7.38Q271.94-6.19 272.97-5.56L272.97-5.56L272.97-5.56Q274-4.94 275.28-4.78L275.28-4.78L275.28-4.78Q276.56-4.63 278-4.63L278-4.63L278 0L278 0Q277.19 0.13 276.38 0.19L276.38 0.19L276.38 0.19Q275.69 0.25 274.72 0.28L274.72 0.28L274.72 0.28Q273.75 0.31 272.81 0.31L272.81 0.31L272.81 0.31Q271.88 0.31 270.91 0.25L270.91 0.25L270.91 0.25Q269.94 0.19 269.25 0.06L269.25 0.06L269.25 0.06Q267.13-0.31 265.94-1.78L265.94-1.78L265.94-1.78Q264.75-3.25 264.16-5.03L264.16-5.03L264.16-5.03Q263.56-6.81 263.41-8.50L263.41-8.50L263.41-8.50Q263.25-10.19 263.25-11.13L263.25-11.13L263.25-30.13L258.63-30.13L258.63-35.25L263.25-35.25L263.25-45.25L270.81-45.25L270.81-35.25L276.44-35.25L276.44-30.13L270.81-30.13Z" fill="#0a0a0a"></path></g></g><style>text {
  font-size: 64px;
  font-family: Arial Black;
  dominant-baseline: central;
  text-anchor: middle;
}</style></svg>